<svg width="225" height="92" viewBox="0 0 225 92" fill="none" xmlns="http://www.w3.org/2000/svg">
<path d="M57.9686 56.4037L37.7667 42.1588C35.7195 40.7153 36.4155 37.7098 38.9683 37.003L60.4392 31.0461C60.894 30.8783 61.3814 30.8239 61.861 30.8872C62.3405 30.9506 62.7983 31.13 63.1965 31.4104C63.5946 31.6909 63.9216 32.0644 64.1502 32.4999C64.3788 32.9354 64.5025 33.4204 64.5111 33.9146L63.2386 54.1153C63.0877 56.5131 60.0158 57.8472 57.9686 56.4037Z" fill="#E9327C"/>
<path d="M51.5572 59.9203L39.6557 36.1282C39.3836 35.5839 39.2639 34.9734 39.3097 34.364C39.3555 33.7546 39.5651 33.1699 39.9153 32.6745C40.2656 32.1791 40.7428 31.7922 41.2945 31.5564C41.8462 31.3207 42.4508 31.2453 43.0418 31.3385L65.0983 34.8183C65.606 34.8984 66.088 35.1006 66.5045 35.4082C66.921 35.7159 67.26 36.1202 67.4939 36.5879C67.7277 37.0556 67.8496 37.5733 67.8495 38.0986C67.8494 38.6238 67.7273 39.1415 67.4935 39.6092L57.3329 59.9215C57.06 60.4642 56.6461 60.9196 56.1365 61.2374C55.627 61.5553 55.0416 61.7234 54.4447 61.7233C53.8478 61.7232 53.2624 61.5549 52.753 61.2368C52.2435 60.9186 51.8298 60.4632 51.5572 59.9203Z" fill="#1DACE3"/>
<path d="M64.459 34.7157L53.464 32.981L39.9646 36.7278L45.3529 47.5032L57.9706 56.4036C58.2489 56.5977 58.5551 56.7465 58.8782 56.8444L63.6708 47.2638L64.459 34.7157Z" fill="#001A49"/>
<path d="M120.148 37.4967C120.148 37.0789 120.269 36.6705 120.497 36.3232C120.724 35.9758 121.046 35.7051 121.424 35.5452C121.802 35.3853 122.217 35.3435 122.618 35.425C123.019 35.5065 123.387 35.7077 123.676 36.0031C123.965 36.2985 124.162 36.6748 124.241 37.0846C124.321 37.4943 124.28 37.919 124.124 38.305C123.967 38.691 123.702 39.0209 123.363 39.253C123.023 39.4851 122.623 39.6089 122.215 39.6089C121.668 39.6033 121.146 39.3789 120.76 38.984C120.373 38.5891 120.154 38.0551 120.148 37.4967ZM120.493 40.6415H123.938V52.3758H120.493V40.6415Z" fill="#181817"/>
<path d="M138.815 46.5088C138.855 47.2844 138.745 48.0605 138.491 48.7924C138.236 49.5241 137.843 50.1974 137.333 50.7733C136.823 51.3491 136.207 51.8162 135.52 52.1478C134.832 52.4794 134.088 52.6688 133.329 52.7052C132.691 52.7407 132.053 52.6306 131.461 52.383C130.869 52.1353 130.339 51.7562 129.908 51.2732V57.0702H126.464V40.6417H129.908V41.7444C130.339 41.2615 130.869 40.8827 131.461 40.6352C132.053 40.3878 132.691 40.2779 133.329 40.3136C134.088 40.3498 134.832 40.5391 135.519 40.8705C136.207 41.202 136.823 41.669 137.333 42.2448C137.843 42.8206 138.236 43.4936 138.491 44.2255C138.745 44.9573 138.855 45.7332 138.815 46.5088ZM135.372 46.5088C135.358 45.9594 135.187 45.4263 134.878 44.9761C134.57 44.5261 134.138 44.1789 133.638 43.9782C133.137 43.7775 132.59 43.7323 132.064 43.8479C131.539 43.9636 131.058 44.2352 130.683 44.6286C130.308 45.0221 130.054 45.52 129.954 46.06C129.854 46.6 129.913 47.1582 130.121 47.6645C130.33 48.1709 130.681 48.603 131.129 48.9069C131.577 49.2108 132.102 49.3728 132.64 49.3728C133.009 49.3898 133.378 49.3267 133.721 49.1879C134.065 49.049 134.376 48.8373 134.634 48.5669C134.892 48.2964 135.091 47.9733 135.218 47.6185C135.345 47.2638 135.398 46.8856 135.372 46.5088Z" fill="#181817"/>
<path d="M149.441 48.8536C149.441 51.5529 147.145 52.7029 144.665 52.7029C143.664 52.7955 142.658 52.5788 141.778 52.0807C140.898 51.5827 140.184 50.8262 139.73 49.9092L142.714 48.1733C142.835 48.5973 143.095 48.9657 143.45 49.2171C143.805 49.4685 144.234 49.5877 144.665 49.5546C145.492 49.5546 145.904 49.2956 145.904 48.8271C145.904 47.5356 140.257 48.217 140.257 44.156C140.257 41.5982 142.368 40.3078 144.761 40.3078C145.659 40.279 146.547 40.4967 147.334 40.9383C148.122 41.3798 148.779 42.0291 149.237 42.8184L146.299 44.438C146.171 44.1299 145.956 43.8674 145.683 43.6832C145.409 43.4989 145.089 43.4012 144.761 43.402C144.164 43.402 143.797 43.6322 143.797 44.0593C143.794 45.4061 149.441 44.514 149.441 48.8536Z" fill="#181817"/>
<path d="M162.027 40.6415V52.3758H158.584V51.2707C158.186 51.7575 157.681 52.1411 157.11 52.3901C156.54 52.6389 155.92 52.7461 155.3 52.7027C152.982 52.7027 151.008 51.0129 151.008 47.8439V40.6415H154.451V47.3305C154.422 47.6102 154.453 47.8931 154.542 48.1592C154.631 48.4253 154.775 48.6686 154.966 48.8719C155.156 49.0751 155.387 49.2335 155.643 49.3361C155.899 49.4388 156.174 49.483 156.449 49.4658C157.711 49.4658 158.588 48.7153 158.588 47.0485V40.6415H162.027Z" fill="#181817"/>
<path d="M181.77 45.1699V52.3758H178.326V45.4761C178.326 44.3031 177.774 43.5515 176.673 43.5515C175.524 43.5515 174.883 44.3734 174.883 45.7581V52.3758H171.438V45.4761C171.438 44.3031 170.887 43.5515 169.785 43.5515C168.637 43.5515 167.994 44.3734 167.994 45.7581V52.3758H164.551V40.6415H168V41.7166C168.357 41.2379 168.825 40.8582 169.363 40.6122C169.9 40.3664 170.49 40.262 171.076 40.3088C171.665 40.2794 172.253 40.4065 172.78 40.6779C173.307 40.9492 173.756 41.3554 174.084 41.857C174.466 41.3323 174.971 40.9149 175.554 40.6441C176.136 40.3733 176.777 40.258 177.414 40.3088C180.049 40.3134 181.77 42.2369 181.77 45.1699Z" fill="#181817"/>
<path d="M184.682 40.569C186.094 40.569 187.238 39.3991 187.238 37.956C187.238 36.5129 186.094 35.343 184.682 35.343C183.27 35.343 182.126 36.5129 182.126 37.956C182.126 39.3991 183.27 40.569 184.682 40.569Z" fill="#F6D88C"/>
<path d="M73.1326 35.2439H76.5772V52.3758H73.1326V35.2439ZM78.5276 46.5086C78.5239 45.2783 78.8773 44.0746 79.5431 43.0499C80.209 42.0251 81.1573 41.2253 82.2681 40.7519C83.379 40.2784 84.6021 40.1525 85.783 40.3901C86.9638 40.6278 88.0492 41.2182 88.9015 42.0868C89.7538 42.9553 90.3349 44.0628 90.571 45.2691C90.8071 46.4755 90.6879 47.7263 90.2282 48.8632C89.7686 50.0001 88.9892 50.9721 87.9888 51.656C86.9884 52.3399 85.812 52.705 84.6084 52.705C83.8091 52.7136 83.0161 52.5595 82.2758 52.2515C81.5355 51.9434 80.8625 51.4876 80.2964 50.9108C79.7303 50.3339 79.2823 49.6475 78.9786 48.8916C78.6749 48.1358 78.5216 47.3257 78.5276 46.5086ZM87.2524 46.5086C87.2389 45.9779 87.0727 45.4631 86.7744 45.0285C86.4762 44.594 86.0593 44.2589 85.5757 44.0653C85.0921 43.8718 84.5635 43.8282 84.0559 43.9402C83.5482 44.0521 83.0842 44.3146 82.7217 44.6947C82.3592 45.0749 82.1145 45.5559 82.018 46.0774C81.9216 46.5991 81.9777 47.1382 82.1795 47.6274C82.3812 48.1165 82.7195 48.534 83.1522 48.8276C83.5848 49.1213 84.0926 49.2779 84.6118 49.2782C84.9674 49.2885 85.3213 49.2234 85.6511 49.087C85.9809 48.9507 86.2794 48.7459 86.5279 48.4856C86.7765 48.2255 86.9696 47.9155 87.095 47.5752C87.2205 47.2349 87.2756 46.8717 87.257 46.5086H87.2524ZM104.424 40.638V51.7864C104.424 55.7289 101.416 57.3946 98.3635 57.3946C97.289 57.4775 96.2128 57.2563 95.2529 56.7554C94.2931 56.2545 93.4868 55.4931 92.9223 54.5548L95.8602 52.8178C96.0973 53.3075 96.4751 53.7115 96.943 53.9759C97.4109 54.2402 97.9465 54.3522 98.4783 54.297C98.8178 54.3443 99.1633 54.3132 99.4894 54.2058C99.8155 54.0984 100.114 53.9177 100.362 53.6767C100.611 53.4357 100.803 53.1408 100.926 52.8136C101.048 52.4864 101.097 52.1353 101.068 51.7864V50.7067C100.665 51.2109 100.152 51.6115 99.5695 51.8763C98.9873 52.1412 98.3525 52.263 97.716 52.2319C96.2008 52.1837 94.7634 51.5346 93.7083 50.4219C92.6531 49.3093 92.0631 47.8205 92.0631 46.2709C92.0631 44.7212 92.6531 43.2325 93.7083 42.1198C94.7634 41.0072 96.2008 40.358 97.716 40.3099C98.3525 40.2788 98.9873 40.4005 99.5695 40.6654C100.152 40.9303 100.665 41.3309 101.068 41.8352V40.638H104.424ZM101.073 46.2704C101.096 45.7035 100.952 45.1428 100.66 44.6602C100.369 44.1775 99.9427 43.795 99.4367 43.5619C98.9309 43.3288 98.3683 43.2557 97.8215 43.3521C97.2747 43.4484 96.7685 43.7097 96.368 44.1025C95.9676 44.4952 95.6913 45.0014 95.5746 45.5559C95.4578 46.1105 95.506 46.688 95.713 47.2144C95.9199 47.7407 96.2762 48.1917 96.7358 48.5094C97.1955 48.8271 97.7377 48.997 98.2925 48.9973C98.6543 49.0232 99.0175 48.9715 99.3586 48.8455C99.6997 48.7194 100.011 48.5218 100.273 48.2652C100.535 48.0087 100.741 47.699 100.879 47.3561C101.017 47.013 101.083 46.6443 101.073 46.2738V46.2704ZM106.374 46.5006C106.371 45.2703 106.724 44.0666 107.39 43.0419C108.056 42.017 109.004 41.2172 110.115 40.7438C111.226 40.2703 112.449 40.1444 113.63 40.3821C114.811 40.6197 115.896 41.2101 116.748 42.0787C117.601 42.9472 118.182 44.0547 118.418 45.2611C118.654 46.4674 118.535 47.7182 118.075 48.8552C117.615 49.9921 116.836 50.9641 115.836 51.648C114.835 52.3318 113.659 52.6969 112.455 52.6969C111.657 52.7056 110.864 52.5517 110.124 52.2441C109.385 51.9366 108.712 51.4815 108.146 50.9055C107.58 50.3295 107.132 49.6441 106.828 48.8891C106.523 48.1342 106.369 47.325 106.374 46.5086V46.5006ZM115.099 46.5006C115.086 45.9696 114.92 45.4543 114.622 45.0193C114.323 44.5844 113.906 44.2491 113.422 44.0553C112.938 43.8614 112.409 43.8178 111.901 43.9298C111.394 44.0417 110.929 44.3044 110.567 44.6847C110.204 45.0651 109.959 45.5464 109.863 46.0683C109.766 46.5902 109.822 47.1298 110.024 47.6191C110.226 48.1085 110.565 48.5262 110.998 48.8199C111.431 49.1136 111.939 49.2701 112.459 49.2701C112.813 49.2797 113.166 49.2144 113.494 49.0782C113.823 48.9421 114.121 48.7379 114.369 48.4786C114.617 48.2194 114.809 47.9106 114.935 47.5716C115.061 47.2326 115.117 46.8707 115.099 46.5086V46.5006Z" fill="#181817"/>
<rect opacity="0.1" x="0.698975" y="0.5" width="223.298" height="90.5502" stroke="#2E4D59"/>
</svg>
